<svg width="1270" height="97" viewBox="0 0 1270 97" fill="none" xmlns="http://www.w3.org/2000/svg">
<path d="M5.289 27.281C2.18367 24.9063 0.631 21.2073 0.631 16.184C0.631 11.0693 2.275 7.18766 5.563 4.53899C8.94233 1.89033 13.509 0.565994 19.263 0.565994C22.9163 0.565994 29.0813 1.20533 37.758 2.48399L47.074 3.85399C50.1793 4.21933 53.3303 4.40199 56.527 4.40199C59.815 4.40199 62.555 3.71699 64.747 2.347C68.035 5.26966 69.679 8.83166 69.679 13.033C69.679 17.2343 67.8067 20.842 64.062 23.856C60.226 27.0527 55.842 28.651 50.91 28.651C48.5353 28.651 45.43 28.3313 41.594 27.692C37.1187 41.7573 34.881 53.6763 34.881 63.449C34.881 73.2217 37.347 80.6653 42.279 85.78C39.9957 89.89 37.1643 92.7213 33.785 94.274C30.4057 95.918 26.1587 96.74 21.044 96.74C16.0207 96.74 11.9107 95.37 8.714 92.63C5.60867 89.7987 4.056 85.506 4.056 79.752C4.056 73.0847 5.88267 64.271 9.536 53.311C13.1893 42.4423 17.756 32.8523 23.236 24.541C20.5873 24.267 17.893 24.13 15.153 24.13C9.49033 24.13 6.20233 25.1803 5.289 27.281ZM120.037 30.706C121.407 27.966 122.092 25.3173 122.092 22.76C122.092 20.2027 121.955 18.239 121.681 16.869C121.407 15.4077 120.951 14.129 120.311 13.033C118.941 10.6583 116.886 9.47099 114.146 9.47099C110.767 9.47099 107.707 10.704 104.967 13.17C102.045 15.7273 100.583 19.0153 100.583 23.034C100.583 25.5913 101.451 27.8747 103.186 29.884C105.013 31.802 107.296 33.6743 110.036 35.501C112.776 37.3277 115.699 39.1543 118.804 40.981C121.91 42.8077 124.832 44.817 127.572 47.009C133.874 52.0323 137.025 57.9233 137.025 64.682C137.025 69.2487 135.792 73.4957 133.326 77.423C130.952 81.259 127.755 84.5927 123.736 87.424C114.968 93.6347 104.785 96.74 93.1852 96.74C83.7779 96.74 76.6539 95.233 71.8132 92.219C66.9725 89.1137 64.5522 85.232 64.5522 80.574C64.5522 72.2627 67.7945 67.0567 74.2792 64.956C76.1059 64.3167 78.3892 63.997 81.1292 63.997C83.9605 63.997 86.9745 64.5907 90.1712 65.778C88.7099 69.5227 87.9792 73.0847 87.9792 76.464C87.9792 83.7707 90.5822 87.424 95.7882 87.424C99.1675 87.424 102.227 86.191 104.967 83.725C107.799 81.259 109.214 78.656 109.214 75.916C109.214 73.0847 108.301 70.6643 106.474 68.655C104.739 66.6457 102.547 64.8647 99.8982 63.312C97.2495 61.668 94.3725 60.0697 91.2672 58.517C88.2532 56.9643 85.4219 55.092 82.7732 52.9C76.5625 47.8767 73.4572 41.3463 73.4572 33.309C73.4572 28.103 74.7359 23.4907 77.2932 19.472C79.8505 15.362 83.1842 11.937 87.2942 9.197C95.5142 3.62567 104.648 0.839999 114.694 0.839999C124.832 0.839999 132.322 2.347 137.162 5.361C142.094 8.375 144.56 12.4393 144.56 17.554C144.56 22.0293 142.825 25.6827 139.354 28.514C136.34 30.8887 133.007 32.076 129.353 32.076C125.7 32.076 122.595 31.6193 120.037 30.706ZM151.389 73.724C151.389 70.162 151.845 66.0977 152.759 61.531L163.856 3.58H194.133L183.173 61.942C182.351 66.2347 181.94 69.9793 181.94 73.176C181.94 76.2813 182.579 78.656 183.858 80.3C185.228 81.944 187.146 82.766 189.612 82.766C192.078 82.766 194.087 82.4463 195.64 81.807C197.192 81.1677 198.608 80.0717 199.887 78.519C202.353 75.4137 204.362 69.888 205.915 61.942L217.012 3.58H237.699L226.739 61.805C224.181 74.7743 219.386 83.862 212.354 89.068C205.504 94.1827 195.32 96.74 181.803 96.74C171.665 96.74 163.901 94.548 158.513 90.164C153.763 86.328 151.389 80.848 151.389 73.724ZM240.568 94L256.186 10.704L257.693 3.58H287.011L269.749 94H240.568ZM325.371 85.917C322.905 93.1323 316.923 96.74 307.424 96.74C300.392 96.74 294.455 92.5387 289.614 84.136C284.682 75.7333 281.76 64.682 280.846 50.982C290.893 32.624 299.387 19.6547 306.328 12.074C312.996 4.85866 319.8 1.25099 326.741 1.25099C330.486 1.25099 333.683 2.25566 336.331 4.265C339.071 6.27433 340.761 8.87733 341.4 12.074C338.295 13.3527 336.012 14.4943 334.55 15.499C330.897 18.239 326.604 22.6687 321.672 28.788L309.205 43.721C307.196 46.0957 305.78 47.831 304.958 48.927C306.328 56.599 309.068 64.2253 313.178 71.806C317.106 79.0213 321.17 83.725 325.371 85.917ZM336.922 94L354.321 3.58H384.461L366.788 94H336.922ZM440.001 83.725C440.001 77.3317 441.279 67.7417 443.837 54.955H423.561L416.026 94H387.393L404.792 3.58H433.699L425.753 43.995H446.029L453.564 3.58H482.471C481.192 10.3387 479.731 17.5083 478.087 25.089L473.429 47.42C469.958 64.7733 468.223 77.2403 468.223 84.821C468.223 87.9263 468.725 90.3467 469.73 92.082C465.163 95.1873 460.185 96.74 454.797 96.74C449.499 96.74 445.709 95.4613 443.426 92.904C441.142 90.3467 440.001 87.287 440.001 83.725ZM547.276 96.74C535.585 96.74 529.192 88.4287 528.096 71.806H504.532C502.705 76.0073 501.153 79.9347 499.874 83.588L496.312 94H477.132L520.287 3.58H549.742L555.496 70.162C556.409 79.752 558.693 85.9627 562.346 88.794C559.697 94.0913 554.674 96.74 547.276 96.74ZM508.779 61.805H527.685L526.041 26.596V22.897L516.314 44.406L508.779 61.805ZM570.761 94L587.201 3.58H616.656L638.028 65.778L649.399 3.58L664.606 3.71699L647.892 94H616.519L596.791 34.131L585.831 94H570.761ZM729.561 96.74C717.87 96.74 711.477 88.4287 710.381 71.806H686.817C684.99 76.0073 683.438 79.9347 682.159 83.588L678.597 94H659.417L702.572 3.58H732.027L737.781 70.162C738.694 79.752 740.978 85.9627 744.631 88.794C741.982 94.0913 736.959 96.74 729.561 96.74ZM691.064 61.805H709.97L708.326 26.596V22.897L698.599 44.406L691.064 61.805ZM837.034 30.706C838.404 27.966 839.089 25.3173 839.089 22.76C839.089 20.2027 838.952 18.239 838.678 16.869C838.404 15.4077 837.948 14.129 837.308 13.033C835.938 10.6583 833.883 9.47099 831.143 9.47099C827.764 9.47099 824.704 10.704 821.964 13.17C819.042 15.7273 817.58 19.0153 817.58 23.034C817.58 25.5913 818.448 27.8747 820.183 29.884C822.01 31.802 824.293 33.6743 827.033 35.501C829.773 37.3277 832.696 39.1543 835.801 40.981C838.907 42.8077 841.829 44.817 844.569 47.009C850.871 52.0323 854.022 57.9233 854.022 64.682C854.022 69.2487 852.789 73.4957 850.323 77.423C847.949 81.259 844.752 84.5927 840.733 87.424C831.965 93.6347 821.782 96.74 810.182 96.74C800.775 96.74 793.651 95.233 788.81 92.219C783.97 89.1137 781.549 85.232 781.549 80.574C781.549 72.2627 784.792 67.0567 791.276 64.956C793.103 64.3167 795.386 63.997 798.126 63.997C800.958 63.997 803.972 64.5907 807.168 65.778C805.707 69.5227 804.976 73.0847 804.976 76.464C804.976 83.7707 807.579 87.424 812.785 87.424C816.165 87.424 819.224 86.191 821.964 83.725C824.796 81.259 826.211 78.656 826.211 75.916C826.211 73.0847 825.298 70.6643 823.471 68.655C821.736 66.6457 819.544 64.8647 816.895 63.312C814.247 61.668 811.37 60.0697 808.264 58.517C805.25 56.9643 802.419 55.092 799.77 52.9C793.56 47.8767 790.454 41.3463 790.454 33.309C790.454 28.103 791.733 23.4907 794.29 19.472C796.848 15.362 800.181 11.937 804.291 9.197C812.511 3.62567 821.645 0.839999 831.691 0.839999C841.829 0.839999 849.319 2.347 854.159 5.361C859.091 8.375 861.557 12.4393 861.557 17.554C861.557 22.0293 859.822 25.6827 856.351 28.514C853.337 30.8887 850.004 32.076 846.35 32.076C842.697 32.076 839.592 31.6193 837.034 30.706ZM876.743 27.281C873.637 24.9063 872.085 21.2073 872.085 16.184C872.085 11.0693 873.729 7.18766 877.017 4.53899C880.396 1.89033 884.963 0.565994 890.717 0.565994C894.37 0.565994 900.535 1.20533 909.212 2.48399L918.528 3.85399C921.633 4.21933 924.784 4.40199 927.981 4.40199C931.269 4.40199 934.009 3.71699 936.201 2.347C939.489 5.26966 941.133 8.83166 941.133 13.033C941.133 17.2343 939.26 20.842 935.516 23.856C931.68 27.0527 927.296 28.651 922.364 28.651C919.989 28.651 916.884 28.3313 913.048 27.692C908.572 41.7573 906.335 53.6763 906.335 63.449C906.335 73.2217 908.801 80.6653 913.733 85.78C911.449 89.89 908.618 92.7213 905.239 94.274C901.859 95.918 897.612 96.74 892.498 96.74C887.474 96.74 883.364 95.37 880.168 92.63C877.062 89.7987 875.51 85.506 875.51 79.752C875.51 73.0847 877.336 64.271 880.99 53.311C884.643 42.4423 889.21 32.8523 894.69 24.541C892.041 24.267 889.347 24.13 886.607 24.13C880.944 24.13 877.656 25.1803 876.743 27.281ZM940.664 73.724C940.664 70.162 941.121 66.0977 942.034 61.531L953.131 3.58H983.408L972.448 61.942C971.626 66.2347 971.215 69.9793 971.215 73.176C971.215 76.2813 971.854 78.656 973.133 80.3C974.503 81.944 976.421 82.766 978.887 82.766C981.353 82.766 983.362 82.4463 984.915 81.807C986.468 81.1677 987.883 80.0717 989.162 78.519C991.628 75.4137 993.637 69.888 995.19 61.942L1006.29 3.58H1026.97L1016.01 61.805C1013.46 74.7743 1008.66 83.862 1001.63 89.068C994.779 94.1827 984.595 96.74 971.078 96.74C960.94 96.74 953.177 94.548 947.788 90.164C943.039 86.328 940.664 80.848 940.664 73.724ZM1119.99 37.145C1119.99 76.053 1098.89 95.507 1056.7 95.507C1049.94 95.507 1040.99 94.685 1029.84 93.041L1045.19 12.074C1045.92 8.42066 1046.51 5.54367 1046.97 3.443C1060.85 2.43833 1070.85 1.93599 1076.97 1.93599C1083.18 1.93599 1089.12 2.57533 1094.78 3.85399C1100.44 5.13266 1105.15 7.18766 1108.89 10.019C1116.29 15.5903 1119.99 24.6323 1119.99 37.145ZM1091.77 32.076C1091.77 18.4673 1086.88 11.663 1077.11 11.663H1075.74C1075.28 11.663 1074.83 11.7087 1074.37 11.8L1060.26 85.369C1060.62 85.5517 1060.99 85.643 1061.35 85.643H1062.45C1065.83 85.643 1069.25 84.5927 1072.72 82.492C1076.29 80.3913 1079.44 77.1947 1082.18 72.902C1088.57 62.9467 1091.77 49.338 1091.77 32.076ZM1126.87 94L1144.27 3.58H1174.41L1156.73 94H1126.87ZM1180.9 60.572C1180.9 43.31 1185.37 29.2447 1194.32 18.376C1203.82 6.59399 1216.84 0.702993 1233.37 0.702993C1245.33 0.702993 1254.33 3.62566 1260.36 9.47099C1266.39 15.225 1269.4 24.2213 1269.4 36.46C1269.4 55.092 1264.65 69.8423 1255.15 80.711C1245.75 91.397 1233.14 96.74 1217.34 96.74C1205.01 96.74 1195.83 93.6803 1189.8 87.561C1183.87 81.3503 1180.9 72.354 1180.9 60.572ZM1216.93 32.213C1212.82 48.653 1210.76 63.3577 1210.76 76.327C1210.76 79.4323 1211.27 81.9897 1212.27 83.999C1213.37 86.0083 1215.29 87.013 1218.03 87.013C1220.86 87.013 1223.14 86.3737 1224.88 85.095C1226.61 83.725 1228.16 81.533 1229.53 78.519C1231.73 73.587 1233.83 65.915 1235.84 55.503C1237.94 44.9997 1239.08 37.6017 1239.26 33.309C1239.44 28.925 1239.53 25.089 1239.53 21.801C1239.53 18.513 1239.03 15.8187 1238.03 13.718C1237.02 11.6173 1235.15 10.567 1232.41 10.567C1229.76 10.567 1227.52 11.389 1225.7 13.033C1222.32 16.1383 1219.4 22.5317 1216.93 32.213Z" fill="white"/>
</svg>
